<svg xmlns:dc="http://purl.org/dc/elements/1.1/" xmlns:cc="http://creativecommons.org/ns#" xmlns:rdf="http://www.w3.org/1999/02/22-rdf-syntax-ns#" xmlns:svg="http://www.w3.org/2000/svg" xmlns="http://www.w3.org/2000/svg" xmlns:sodipodi="http://sodipodi.sourceforge.net/DTD/sodipodi-0.dtd" xmlns:inkscape="http://www.inkscape.org/namespaces/inkscape" version="1.1" x="0px" y="0px" viewBox="0 0 100 125"><g transform="translate(0,-952.36218)"><path style="text-indent:0;text-transform:none;direction:ltr;block-progression:tb;baseline-shift:baseline;color:#000000;enable-background:accumulate;" d="m 94.000001,1010.3686 c 0,14.917 -12.05555,26.9934 -27.01136,26.9934 l -35.026008,0 c -1.05705,0.015 -2.0293,-0.9431 -2.0293,-1.9995 0,-1.0564 0.97225,-2.0144 2.0293,-1.9995 l 35.026008,0 c 12.81242,0 23.00969,-10.2182 23.00969,-22.9944 0,-12.77629 -10.19727,-22.99449 -23.00969,-22.99449 l -57.0239484,0 c -0.34761,0.01 -0.69627,-0.082 -1.00044,-0.25 -0.91642,0.5104 -2.21429,0.1445 -2.72863,-0.7693 -0.51434,-0.9137 -0.15329,-2.2123 0.75907,-2.7298 l 28.0116984,-15.9962 c 0.63503,-0.3717 1.47886,-0.3533 2.09708,0.046 0.61823,0.3991 0.98204,1.1602 0.90415,1.8915 -0.0625,0.6462 -0.4616,1.2506 -1.03157,1.5621 l -21.446518,12.247 51.459108,0 c 14.95581,0 27.01136,12.0765 27.01136,26.99359 z" fill="#FFFFFF" fill-opacity="1" stroke="none" marker="none" visibility="visible" display="inline" overflow="visible"/></g></svg>